<svg viewBox="0 0 128 114" xmlns="http://www.w3.org/2000/svg"><g fill-rule="nonzero" transform="matrix(1.50147 0 0 1.5 -11.6364 -19.875)"><path d="m80.25 27.375v-4.446h.833c.69 0 1.25-.56 1.25-1.25s-.56-1.25-1.25-1.25h-.833v-7.179h-12.043v7.179h-.874c-.69 0-1.25.56-1.25 1.25s.56 1.25 1.25 1.25h.874v4.446h-11.957v-4.446h.833c.69 0 1.25-.56 1.25-1.25s-.56-1.25-1.25-1.25h-.833v-7.179h-12.043v7.179h-.874c-.69 0-1.25.56-1.25 1.25s.56 1.25 1.25 1.25h.874v4.446h-11.957v-4.446h.833c.69 0 1.25-.56 1.25-1.25s-.56-1.25-1.25-1.25h-.833v-7.179h-12.043v7.179h-.874c-.69 0-1.25.56-1.25 1.25s.56 1.25 1.25 1.25h.874v4.446h-12.457v61.875h85.25v-61.875zm2.902 17.712v7.08h-17.366v-7.08l.804-2.5c.847-1.403 2.199-3.503 3.534-5.504h8.536c1.326 2.012 2.673 4.088 3.564 5.504zm-12.445-29.337h7.043v4.679h-7.043zm7.043 7.179v11.655h-7.043v-11.655zm-9.543 6.946v5.579c-4.91 7.329-4.921 7.993-4.921 8.384v8.33h-1.634v-8.33c0-.327-.01-.563-1.903-3.528h4.729v-8.56h-8.228v-1.875zm-26.421 15.212.804-2.5c.847-1.403 2.2-3.503 3.535-5.504h8.536c1.326 2.012 2.672 4.088 3.563 5.504l.928 2.5v7.08h-17.366zm2.421-9.633c-.585.874-1.107 1.661-1.561 2.355h-3.771v-3.56h5.332zm12.169-.31-.126-.19v-.704h5.729v3.56h-3.849c-.508-.777-1.089-1.66-1.754-2.666zm-9.669-19.394h7.043v4.679h-7.043zm7.043 7.179v11.655h-7.043v-11.655zm-9.543 6.946v1.875h-7.832v8.56h4.673c-1.755 2.834-1.762 3.25-1.762 3.528v8.33h-1.634v-8.33c0-.459 0-.712-5.277-8.693l-.125-.19v-5.079h11.957zm-26.421 15.212.804-2.5c.847-1.403 2.2-3.503 3.535-5.504h8.536c1.327 2.012 2.672 4.088 3.564 5.504l.928 2.5v7.08h-17.367zm4.921-29.337h7.043v4.679h-7.043zm7.043 7.179v11.655h-7.043v-11.655zm-19.5 6.946h9.957v5.579c-4.91 7.329-4.921 7.993-4.921 8.383v8.33h-5.036zm80.25 56.875h-80.25v-32.083h80.25zm-4.848-34.583v-8.33c0-.459 0-.712-5.276-8.693l-.126-.19v-5.079h10.25v22.292z"/><path d="m28.063 62.334v16.75h43.875v-16.75zm41.375 14.25h-38.875v-11.75h38.875z"/></g></svg>