<svg viewBox="0 0 128 124" xmlns="http://www.w3.org/2000/svg"><g fill-rule="nonzero" fill="#183C50" transform="matrix(15.1336 0 0 15.1336 3148.71 -4732.67)"><path d="m-205.807 314.139c-.333-.013-.668.07-.963.211-.341.162-.684.393-.906.724-.143.214-.229.531-.291.805s-.092.502-.092.502c0 .005-.001.011-.001.016 0 .073.06.133.133.133.003 0 .007 0 .011-.001 0 0 .189-.016.42-.054.231-.039.502-.094.693-.194.363-.188.694-.475.907-.832.068-.114.096-.265.13-.408.045.142.082.294.143.404.161.289.376.579.678.762.2.121.488.186.736.232.248.047.453.067.453.067.005 0 .01.001.014.001.073 0 .133-.06.133-.133v-.001s-.002-.156-.02-.348c-.017-.191-.043-.415-.121-.584-.175-.378-.471-.707-.82-.931-.366-.235-.808-.355-1.237-.371zm-.132.291c.003.016.012.052.017.078-.002.014-.015.141-.049.312-.035.181-.096.396-.154.492-.183.307-.478.567-.801.735-.13.068-.393.129-.613.166-.125.021-.153.021-.227.029.014-.086.02-.138.057-.305.059-.261.155-.569.254-.716.183-.273.484-.483.799-.633.222-.106.474-.147.717-.158zm.273.017c.334.035.676.109.951.285.306.197.573.493.725.821.046.1.083.316.099.496.008.095.006.112.008.172-.077-.009-.125-.013-.277-.041-.236-.044-.515-.119-.648-.199-.242-.147-.436-.399-.584-.665-.079-.14-.163-.41-.221-.636-.033-.129-.037-.157-.053-.233z"/><path d="m-205.594 315.447c-.016.548-.391 1.035-.873 1.512-.182-.271-.276-.531-.289-.836l-.264.012c.016.371.027.806.438 1.211.049.047.128.049.18.004.625-.557 1.053-1.176 1.074-1.895z"/><path d="m-207.811 316.332c-.151.609-.084 1.234.12 1.861.017.055.068.092.125.092.023 0 .046-.006.066-.017.502-.286.791-.655.998-1.034l-.232-.129c-.156.285-.416.524-.723.75-.129-.5-.214-.992-.098-1.46z"/><path d="m-203.779 316.332-.256.063c.117.468.031.96-.098 1.46-.307-.226-.567-.465-.723-.75l-.232.129c.208.379.496.748.998 1.034.02.011.043.017.066.017.057 0 .108-.037.126-.092.203-.627.271-1.252.119-1.861z"/><path d="m-204.881 316.184c-.008.277-.069.534-.178.793-.208-.093-.41-.196-.629-.543l-.224.14c.285.454.593.656.889.756.059.02.124-.005.156-.059.21-.367.242-.735.252-1.08z"/><path d="m-206.283 317.15-.252.08c.081.257.132.546.224.819.093.273.235.536.5.709.049.03.111.026.155-.01.393-.321.619-.857.758-1.514l-.26-.055c-.119.565-.33.955-.598 1.227-.125-.123-.24-.253-.305-.443-.083-.246-.134-.534-.222-.813z"/><path d="m-207.256 317.971-.258.06c.139.59.182 1.136.717 1.783.025.031.063.049.102.049.036 0 .07-.015.095-.041.448-.462.752-.952.723-1.48l-.264.014c.02.346-.239.704-.541 1.066-.329-.491-.449-.92-.574-1.451z"/><path d="m-204.328 317.973c-.117.524-.237.951-.539 1.435-.278-.355-.522-.709-.504-1.053l-.266-.013c-.027.525.261 1.014.686 1.476.025.027.06.043.097.043.041 0 .079-.019.104-.051.508-.647.548-1.19.68-1.781z"/><path d="m-206.32 319.355-.252.079c.081.256.127.528.217.783.089.255.227.499.49.67.048.031.112.027.156-.01.383-.312.594-.746.732-1.403l-.259-.054c-.119.562-.307.863-.575 1.121-.123-.118-.234-.239-.294-.412-.079-.226-.128-.495-.215-.774z"/><path d="m-206.416 312.725c-.07.003-.126.062-.126.132 0 .032.012.064.034.088 0 0 .098.11.209.254s.235.328.279.438c.035.083.067.259.084.404.018.145.024.264.024.264v.002c0 .072.06.132.132.132.073 0 .132-.06.132-.132v-.016s-.005-.127-.024-.281c-.018-.155-.045-.336-.101-.475-.068-.165-.2-.345-.317-.496s-.221-.268-.221-.268c-.026-.03-.065-.048-.105-.046z"/><path d="m-203.311 313.438c-.214.048-.441.157-.638.275-.198.117-.361.238-.453.334-.025.025-.038.058-.038.092 0 .041.019.08.051.105 0 0 .154.119.352.252.197.133.433.281.641.346.021.007.044.008.066.004.304.086.639.135.957.056.227-.055.478-.212.686-.355.207-.143.367-.273.367-.273.03-.026.048-.063.048-.103 0-.036-.015-.07-.04-.095 0 0-.112-.111-.26-.234-.148-.124-.324-.261-.498-.324-.391-.144-.834-.172-1.24-.08zm.059.257c.354-.08.75-.054 1.09.071.103.037.283.163.422.279.073.061.085.074.129.115-.061.048-.099.08-.227.168-.198.136-.449.281-.6.318-.276.068-.592.033-.878-.056-.147-.046-.385-.185-.575-.313-.109-.074-.132-.095-.193-.14.077-.063.146-.122.27-.196.182-.108.395-.208.562-.246z"/><path d="m-203.178 314.643-.191.181c.376.399.455 1.009.451 1.686-.32-.063-.57-.18-.795-.387l-.18.195c.274.252.59.551 1.166.547.069 0 .126-.054.131-.123.049-.835-.089-1.576-.582-2.099z"/><path d="m-202.75 316.73-.254.075c.095.323.087.684.02 1.082-.195-.113-.392-.226-.553-.364l-.002-.002c-.036-.031-.221-.226-.221-.226l-.193.182s.161.176.24.246h.002c.236.203.505.375.799.525.018.009.039.014.06.014.059 0 .111-.039.127-.096.153-.557.096-1.021-.025-1.436z"/><path d="m-201.461 314.166-.137.227c.414.248.703.656.965 1.101-.378.057-.729.072-1.041-.019l-.074.254c.414.121.878.178 1.436.025.056-.016.096-.068.096-.127 0-.021-.005-.042-.014-.061-.3-.587-.693-1.077-1.231-1.4z"/><path d="m-202.152 314.658-.192.182c.191.202.328.427.434.687-.213.082-.43.152-.83.061l-.059.258c.523.119.882.044 1.162-.094.057-.027.086-.091.071-.152-.111-.409-.35-.691-.586-.942z"/><path d="m-201.615 315.596-.221.144c.314.483.44.909.443 1.289-.175.002-.347-.009-.527-.097-.233-.115-.473-.281-.732-.416l-.123.234c.238.124.479.293.738.42.258.127.543.214.853.148.057-.012.099-.06.104-.117.052-.505-.169-1.043-.535-1.605z"/><path d="m-201.523 317.07-.176.198c.258.231.329.667.371 1.136-.58-.115-.968-.333-1.432-.621l-.14.225c.515.319.931.675 1.767.754h.012c.073 0 .133-.059.133-.132v-.001c-.011-.644-.141-1.206-.535-1.559z"/><path d="m-200.467 315.572-.222.143c.288.453.505.839.634 1.394-.448-.055-.871-.131-1.101-.386l-.198.177c.353.392.902.534 1.53.561h.005c.073 0 .133-.06.133-.132 0-.006-.001-.011-.001-.017-.099-.816-.455-1.229-.78-1.74z"/><path d="m-200.086 317.236-.221.145c.314.481.393.826.387 1.197-.171.005-.336-.002-.502-.082-.215-.104-.44-.261-.699-.396l-.121.234c.239.124.461.283.705.4.243.118.516.192.822.127.056-.012.098-.058.104-.115.05-.491-.109-.948-.475-1.51z"/><path d="m-205.795 313.438c-.066.007-.117.064-.117.131 0 .071.056.13.127.132 0 0 .148.01.328.033.181.023.397.064.506.11.083.035.229.136.344.226.115.091.203.17.203.17.025.026.059.041.095.041.073 0 .132-.06.132-.133 0-.04-.018-.078-.049-.103 0 0-.095-.085-.217-.182-.122-.096-.268-.205-.406-.263-.164-.069-.385-.105-.575-.129-.189-.025-.345-.034-.345-.034h-.026z"/><path d="m-204.402 314.078c-.123.21-.19.455-.139.727l.26-.049c-.038-.204.007-.373.107-.545z"/></g></svg>