<svg viewBox="0 0 128 74" xmlns="http://www.w3.org/2000/svg"><g fill-rule="nonzero"><path d="m91.546 48.008-6.313-14.946h-18.869v26.338l-1.106 1.162h-3.265v8.521h1.6c-.013-.208-.02-.416-.02-.628 0-5.623 4.558-10.182 10.181-10.182s10.182 4.559 10.182 10.182c0 .212-.006.42-.021.628h12.274v-15.657zm-19.593-.227v-12.243h11.264l5.045 12.243z" transform="matrix(1.38561 0 0 1.38561 -5.28056 -33.1258)"/><path d="m-.00000029-.00002173h83.72548425v47.53473666h-83.72548425z" stroke-width="1.38561"/><path d="m52.59775531 51.21489509h24.68879898v13.6482585h-24.68879898z" stroke-width="1.38561"/><path d="m15.946 60.869h-9.146v8.41h5.788c-.022-.271-.033-.547-.033-.824 0-3.014 1.309-5.723 3.391-7.586z" transform="matrix(1.38561 0 0 1.38561 -5.28056 -33.1258)"/><path d="m29.526 60.869c2.081 1.863 3.392 4.572 3.392 7.586 0 .277-.012.553-.033.824h5.456v-8.41z" transform="matrix(1.38561 0 0 1.38561 -5.28056 -33.1258)"/><path d="m22.735 60.82c-4.206 0-7.636 3.43-7.636 7.635.001 4.207 3.43 7.638 7.636 7.638 4.207 0 7.637-3.431 7.637-7.638 0-4.205-3.43-7.635-7.637-7.635zm0 11.647c-2.216 0-4.012-1.796-4.012-4.012s1.796-4.012 4.012-4.012 4.012 1.796 4.012 4.012-1.796 4.012-4.012 4.012z" transform="matrix(1.5344 0 0 1.5344 -8.66329 -43.3111)"/><path d="m73.754 60.82c-4.206 0-7.636 3.43-7.636 7.635 0 4.207 3.43 7.638 7.636 7.638s7.637-3.431 7.637-7.638c0-4.205-3.431-7.635-7.637-7.635zm0 11.647c-2.216 0-4.012-1.796-4.012-4.012s1.796-4.012 4.012-4.012 4.012 1.796 4.012 4.012-1.796 4.012-4.012 4.012z" transform="matrix(1.54539 0 0 1.54539 -17.0643 -44.0631)"/></g></svg>